#N canvas 118 121 764 723 12;
#X declare -lib zexy -path zexy;
#X declare -path stuff;
#N canvas 1020 72 364 423 guts 0;
#X obj 16 35 declare -lib zexy -path zexy;
#X obj 15 10 declare -path stuff;
#X obj 15 136 * 100;
#X obj 15 161 i;
#X obj 15 186 change;
#X msg 15 211 label master:\$1%;
#X obj 68 163 loadbang;
#X obj 236 10 loadbang;
#X msg 236 35 \; pd dsp 1;
#X obj 15 78 clone -s 1 outchan 8;
#X obj 67 138 s audio-master;
#X obj 15 111 r audio-master-snd;
#X obj 15 236 s audio-master-rcv;
#X msg 68 188 0.8;
#X obj 21 294 scanwavs wavs;
#X obj 21 270 r \$0-update-snd;
#X obj 21 334 play_track wavs;
#X connect 2 0 3 0;
#X connect 3 0 4 0;
#X connect 4 0 5 0;
#X connect 5 0 12 0;
#X connect 6 0 13 0;
#X connect 7 0 8 0;
#X connect 11 0 2 0;
#X connect 11 0 10 0;
#X connect 13 0 12 0;
#X connect 15 0 14 0;
#X restore 651 685 pd guts;
#X obj 641 72 vu 15 200 out1_vu L 4 -10 0 12 #404040 #000000 0 0;
#X obj 659 72 vu 15 200 out2_vu R 4 -10 0 12 #404040 #000000 0 0;
#X obj 677 72 vsl 40 200 0 1 0 0 audio-master-snd audio-master-rcv master:31% 0 -9 0 12 #ff0400 #000000 #000000 0 1;
#X obj 6 5 cnv 20 300 40 empty empty CQNT\ Playlist 70 24 2 24 #e0e0e0 #404040 0;
#X obj 18 69 track 1;
#X obj 18 133 track 2;
#X obj 18 197 track 3;
#X obj 18 261 track 4;
#X obj 18 325 track 5;
#X obj 18 389 track 6;
#X obj 18 453 track 7;
#X obj 18 517 track 8;
#X obj 18 581 track 9;
#X obj 18 645 track 10;
#X obj 324 69 track 11;
#X obj 324 133 track 12;
#X obj 324 197 track 13;
#X obj 324 261 track 14;
#X obj 324 325 track 15;
#X obj 324 389 track 16;
#X obj 324 453 track 17;
#X obj 324 517 track 18;
#X obj 324 581 track 19;
#X obj 324 645 track 20;
#X obj 642 302 bng 60 250 50 0 \$0-update-snd \$0-update-rcv Update 4 30 0 15 #faff00 #000000 #000000;
#X obj 324 3 bng 60 250 50 0 track-stop-snd track-stop-rcv STOP 6 30 0 20 #ff0400 #000000 #000000;
