#N canvas 1064 43 773 961 12;
#X obj 59 35 r play_track;
#X obj 339 532 s played_track_index;
#X obj 66 689 readsf~ 2 100000;
#X obj 82 215 soundfiler;
#X msg 82 190 read \$1;
#X obj 381 75 file patchpath;
#X obj 381 103 list append \$1;
#X msg 381 49 1;
#X obj 381 22 loadbang;
#X msg 381 128 symbol \$1/\$2;
#X msg 82 166 symbol \$1/\$2.wav;
#X obj 82 141 list prepend;
#X obj 66 727 *~;
#X obj 120 727 *~;
#X obj 82 240 /;
#X obj 82 265 * 1000;
#X obj 105 90 samplerate~;
#X obj 67 785 throw~ out1;
#X obj 120 756 throw~ out2;
#X obj 66 484 t b s;
#X obj 66 509 del 20;
#X msg 117 584 stop \, open \$1;
#X msg 66 534 start;
#X obj 220 664 line~;
#X msg 220 632 0 \, 1 50;
#X obj 230 741 bng 20 250 50 0 empty empty empty 0 -10 0 12 #fcfcfc #000000 #000000;
#X obj 325 627 del;
#X obj 325 655 bng 20 250 50 0 empty empty empty 0 -10 0 12 #fcfcfc #000000 #000000;
#X obj 59 65 t s s b;
#X obj 59 295 pack s f;
#X obj 66 453 unpack s f, f 30;
#X obj 273 480 + 20;
#X obj 432 658 timer;
#X obj 432 683 * -1;
#X obj 432 708 +, f 8;
#X obj 432 631 t b f;
#X obj 325 594 t f f;
#X msg 339 434 0 \, 1 \$1;
#X obj 66 420 t a a, f 13;
#X msg 339 362 \$2 \$1;
#X obj 339 385 unpack f s;
#X obj 339 486 list prepend;
#X obj 339 460 line;
#X obj 339 509 list trim;
#X obj 381 153 s \$0-wavsdir;
#X obj 163 117 r \$0-wavsdir;
#X msg 117 558 symbol \$1/\$2.wav;
#X obj 117 533 list prepend;
#X obj 198 509 r \$0-wavsdir;
#X obj 432 733 moses 0;
#X obj 525 795 del;
#X msg 478 795 0 \$1;
#X obj 548 876 s play_track-stop;
#X obj 525 563 r track-stop-snd;
#X msg 571 850 stop;
#X obj 220 689 *~;
#X obj 339 410 t f f, f 13;
#X obj 496 336 *;
#X obj 496 361 / 1000;
#X obj 496 386 i;
#X obj 496 411 change;
#N canvas 0 0 384 284 mn:sec 0;
#X obj 37 37 inlet;
#X obj 37 62 t f f, f 20;
#X obj 37 87 div 60;
#X obj 174 88 mod 60;
#X obj 174 112 makefilename %02d;
#X obj 37 111 makefilename %02d;
#X obj 37 136 pack s s, f 20;
#X msg 37 161 symbol \$1:\$2;
#X obj 37 186 outlet;
#X connect 0 0 1 0;
#X connect 1 0 2 0;
#X connect 1 1 3 0;
#X connect 2 0 5 0;
#X connect 3 0 4 0;
#X connect 4 0 6 1;
#X connect 5 0 6 0;
#X connect 6 0 7 0;
#X connect 7 0 8 0;
#X restore 496 436 pd mn:sec;
#N canvas 0 0 384 284 mn:sec 0;
#X obj 37 37 inlet;
#X obj 37 62 t f f, f 20;
#X obj 37 87 div 60;
#X obj 174 88 mod 60;
#X obj 174 112 makefilename %02d;
#X obj 37 111 makefilename %02d;
#X obj 37 136 pack s s, f 20;
#X msg 37 161 symbol \$1:\$2;
#X obj 37 186 outlet;
#X connect 0 0 1 0;
#X connect 1 0 2 0;
#X connect 1 1 3 0;
#X connect 2 0 5 0;
#X connect 3 0 4 0;
#X connect 4 0 6 1;
#X connect 5 0 6 0;
#X connect 6 0 7 0;
#X connect 7 0 8 0;
#X restore 577 435 pd mn:sec;
#X obj 577 384 / 1000;
#X obj 577 409 i;
#X obj 496 461 pack s s, f 12;
#X msg 496 486 label \$1\\\ /\\\ \$2;
#X msg 556 339 set -1;
#X obj 525 618 t b f;
#X obj 525 825 t b b b;
#X obj 432 884 spigot;
#X obj 432 816 b;
#X msg 488 883 0;
#X obj 59 320 t b l;
#X obj 66 393 list;
#X msg 525 588 0;
#X msg 490 587 1;
#X floatatom 587 751 5 0 0 0 - - - 0;
#X msg 597 686 500;
#X msg 613 817 0;
#X msg 683 679 2000;
#X obj 432 850 del 1;
#X obj 478 758 min 1000;
#X msg 634 684 1000;
#X connect 0 0 28 0;
#X connect 2 0 12 0;
#X connect 2 1 13 0;
#X connect 2 2 25 0;
#X connect 3 0 14 0;
#X connect 4 0 3 0;
#X connect 5 0 6 0;
#X connect 6 0 9 0;
#X connect 7 0 5 0;
#X connect 8 0 7 0;
#X connect 9 0 44 0;
#X connect 10 0 4 0;
#X connect 11 0 10 0;
#X connect 12 0 17 0;
#X connect 13 0 18 0;
#X connect 14 0 15 0;
#X connect 15 0 29 1;
#X connect 16 0 14 1;
#X connect 19 0 20 0;
#X connect 19 1 47 0;
#X connect 20 0 22 0;
#X connect 20 0 24 0;
#X connect 21 0 2 0;
#X connect 22 0 2 0;
#X connect 23 0 55 0;
#X connect 23 0 55 1;
#X connect 24 0 23 0;
#X connect 26 0 27 0;
#X connect 28 0 29 0;
#X connect 28 1 11 0;
#X connect 28 2 16 0;
#X connect 29 0 73 0;
#X connect 30 0 19 0;
#X connect 30 1 31 0;
#X connect 31 0 36 0;
#X connect 32 0 33 0;
#X connect 33 0 34 0;
#X connect 34 0 49 0;
#X connect 34 0 77 0;
#X connect 35 0 32 0;
#X connect 35 1 34 1;
#X connect 36 0 26 0;
#X connect 36 1 35 0;
#X connect 37 0 42 0;
#X connect 38 0 30 0;
#X connect 38 1 39 0;
#X connect 39 0 40 0;
#X connect 40 0 56 0;
#X connect 40 1 41 1;
#X connect 41 0 43 0;
#X connect 42 0 41 0;
#X connect 42 0 57 0;
#X connect 43 0 1 0;
#X connect 45 0 11 1;
#X connect 46 0 21 0;
#X connect 47 0 46 0;
#X connect 48 0 47 1;
#X connect 49 0 71 0;
#X connect 49 1 82 0;
#X connect 50 0 69 0;
#X connect 51 0 23 0;
#X connect 53 0 75 0;
#X connect 54 0 2 0;
#X connect 54 0 42 0;
#X connect 55 0 12 1;
#X connect 55 0 13 1;
#X connect 56 0 37 0;
#X connect 56 1 57 1;
#X connect 56 1 63 0;
#X connect 56 1 67 0;
#X connect 57 0 58 0;
#X connect 58 0 59 0;
#X connect 59 0 60 0;
#X connect 60 0 61 0;
#X connect 61 0 65 0;
#X connect 62 0 65 1;
#X connect 63 0 64 0;
#X connect 64 0 62 0;
#X connect 65 0 66 0;
#X connect 66 0 41 0;
#X connect 67 0 60 0;
#X connect 68 0 32 1;
#X connect 68 1 70 1;
#X connect 69 0 70 0;
#X connect 69 1 52 0;
#X connect 69 1 79 0;
#X connect 69 2 54 0;
#X connect 70 0 72 0;
#X connect 70 0 74 0;
#X connect 71 0 81 0;
#X connect 72 0 70 1;
#X connect 73 0 76 0;
#X connect 73 1 74 1;
#X connect 74 0 38 0;
#X connect 75 0 68 0;
#X connect 76 0 68 0;
#X connect 78 0 82 1;
#X connect 79 0 34 1;
#X connect 80 0 82 1;
#X connect 81 0 70 0;
#X connect 82 0 51 0;
#X connect 82 0 50 0;
#X connect 83 0 82 1;
