#N canvas 866 416 522 530 12;
#X obj 61 20 loadbang;
#X obj 61 45 bng 20 250 50 0 empty empty empty 0 -10 0 12 #fcfcfc #000000 #000000;
#X obj 101 145 file patchpath;
#X obj 101 175 list append \$1;
#X msg 133 227 symbol \$1/\$2/*.wav;
#X obj 101 288 file glob;
#X msg 101 255 symbol \$1/\$2/*.WAV;
#X obj 101 200 t a a;
#X obj 101 313 file splitname;
#X msg 101 338 symbol \$2;
#X obj 101 363 file splitext;
#X msg 101 388 symbol \$1;
#X obj 227 18 text define wavs_title_text;
#X msg 142 105 \; wavs_title_text clear;
#X obj 101 413 text set wavs_title_text 1e+06;
#X obj 61 442 s wavs_title_text-refresh;
#X obj 140 21 inlet;
#X msg 101 119 1;
#X obj 61 78 t b b b, f 12;
#X connect 0 0 1 0;
#X connect 1 0 18 0;
#X connect 2 0 3 0;
#X connect 3 0 7 0;
#X connect 4 0 5 0;
#X connect 5 0 8 0;
#X connect 6 0 5 0;
#X connect 7 1 4 0;
#X connect 8 0 9 0;
#X connect 9 0 10 0;
#X connect 10 0 11 0;
#X connect 11 0 14 0;
#X connect 16 0 1 0;
#X connect 17 0 2 0;
#X connect 18 0 15 0;
#X connect 18 1 17 0;
#X connect 18 2 13 0;
