#N canvas 706 105 717 489 12;
#X obj 11 29 cnv 20 298 30 empty \$0-title_can 01-meiteisho3 5 12 0 16 #e0e0e0 #551312 0;
#X obj 14 56 hsl 232 15 0 1 0 0 \$0-pos-snd \$0-pos-rcv 00:04\ /\ 03:50 5 8 0 12 #e0e0e0 #e0e0e0 #e0e0e0 0 1;
#X obj 249 11 bng 60 250 50 0 \$0-go-snd \$0-go-rcv GO 18 30 0 20 #d8fcd8 #000000 #000000;
#X obj 67 112 r wavs_title_text-refresh;
#X obj 67 141 f \$1;
#X obj 67 166 - 1;
#X obj 40 112 bng 20 250 50 0 empty empty empty 0 -10 0 12 #fcfcfc #000000 #000000;
#X obj 67 192 text get wavs_title_text;
#X msg 130 345 label \$1;
#X obj 63 374 s \$0-title_can;
#X msg 63 345 label;
#X obj 223 394 s \$0-go-rcv;
#X msg 223 366 color 10 10 10;
#X obj 67 218 s \$0-title;
#X msg 120 140 20;
#X obj 63 294 r \$0-title;
#X obj 63 319 route bang;
#X obj 463 40 r \$0-title;
#X obj 368 139 symbol;
#X obj 463 65 route bang;
#X obj 328 59 r \$0-go-snd;
#X obj 328 84 spigot;
#X obj 368 164 s play_track;
#X obj 387 203 r played_track_index;
#X obj 387 253 s \$0-pos-rcv;
#X obj 387 228 route title, f 15;
#X msg 492 365 color 10 10 10;
#X msg 525 262 0;
#X msg 492 261 1;
#X obj 492 286 change;
#X obj 492 316 sel 0 1;
#X obj 492 393 s \$0-pos-rcv;
#X msg 515 341 color 15 22 22;
#X obj 549 202 r play_track-stop;
#X obj 583 42 r \$0-title;
#X obj 583 67 route bang;
#X msg 583 92 0;
#X msg 627 91 1;
#X obj 583 117 s \$0-enabled;
#X obj 380 83 r \$0-enabled;
#X obj 223 265 r \$0-enabled;
#X obj 223 290 f;
#X obj 223 315 sel 0 1;
#X msg 357 310 color 15 22 22;
#X msg 246 340 color 6 22 22;
#X msg 357 339 color 16 22 22;
#X obj 549 227 t b b;
#X obj 257 215 r play_track;
#X obj 257 240 b;
#X obj 328 113 t b b;
#X connect 3 0 4 0;
#X connect 4 0 5 0;
#X connect 5 0 7 0;
#X connect 6 0 4 0;
#X connect 7 0 13 0;
#X connect 8 0 9 0;
#X connect 10 0 9 0;
#X connect 12 0 11 0;
#X connect 14 0 5 0;
#X connect 15 0 16 0;
#X connect 16 0 10 0;
#X connect 16 1 8 0;
#X connect 17 0 19 0;
#X connect 18 0 22 0;
#X connect 19 1 18 1;
#X connect 19 1 25 1;
#X connect 20 0 21 0;
#X connect 21 0 49 0;
#X connect 23 0 25 0;
#X connect 25 0 24 0;
#X connect 25 0 28 0;
#X connect 25 1 27 0;
#X connect 26 0 31 0;
#X connect 27 0 29 0;
#X connect 28 0 29 0;
#X connect 29 0 30 0;
#X connect 30 0 26 0;
#X connect 30 1 32 0;
#X connect 30 1 45 0;
#X connect 32 0 31 0;
#X connect 33 0 46 0;
#X connect 34 0 35 0;
#X connect 35 0 36 0;
#X connect 35 1 37 0;
#X connect 36 0 38 0;
#X connect 37 0 38 0;
#X connect 39 0 21 1;
#X connect 40 0 41 0;
#X connect 41 0 42 0;
#X connect 42 0 12 0;
#X connect 42 1 44 0;
#X connect 43 0 11 0;
#X connect 44 0 11 0;
#X connect 45 0 11 0;
#X connect 46 0 27 0;
#X connect 46 1 41 0;
#X connect 47 0 48 0;
#X connect 48 0 41 0;
#X connect 49 0 43 0;
#X connect 49 1 18 0;
#X coords 0 -1 1 1 300 62 1 10 10;
